<svg xmlns="http://www.w3.org/2000/svg" xmlns:svg="http://www.w3.org/2000/svg" id="Capa_1" width="25" height="25" x="0" y="0" version="1.1" viewBox="0 0 25 25" xml:space="preserve"><metadata id="metadata41"/><g id="g4" transform="matrix(0.4116446,0,0,0.4116446,0,-4.1370898e-4)" style="fill-opacity:.50265067;fill:#fff"><path id="path2" d="M 57.378,0.001 H 3.352 C 1.502,0.001 0,1.5 0,3.353 v 54.026 c 0,1.853 1.502,3.354 3.352,3.354 H 32.438 V 37.214 h -7.914 v -9.167 h 7.914 v -6.76 c 0,-7.843 4.789,-12.116 11.787,-12.116 3.355,0 6.232,0.251 7.071,0.36 v 8.198 l -4.854,0.002 c -3.805,0 -4.539,1.809 -4.539,4.462 v 5.851 h 9.078 l -1.187,9.166 h -7.892 v 23.52 h 15.475 c 1.852,0 3.355,-1.503 3.355,-3.351 V 3.351 C 60.731,1.5 59.23,0.001 57.378,0.001 Z" style="fill-opacity:.50265067;fill:#fff"/></g></svg>