<svg xmlns="http://www.w3.org/2000/svg" xmlns:xlink="http://www.w3.org/1999/xlink" width="98" height="98" version="1.1" viewBox="0 0 98 98"><title>link</title><desc>Created with Sketch.</desc><g id="Page-1" fill="none" fill-rule="evenodd" stroke="none" stroke-width="1"><g id="分享弹窗" transform="translate(-207.000000, -346.000000)"><g id="link" transform="translate(207.500000, 346.000000)"><circle id="椭圆形备份" cx="48.75" cy="48.75" r="48.75" fill="#FFF"/><g id="icon_link" transform="translate(22.500000, 18.000000)"><g id="资源-2" transform="translate(9.000000, 11.000000)"><polygon id="路径" fill="#32C5FF" fill-rule="nonzero" points="22 29.585 24.311 38 37 4"/><path id="路径" stroke="#333" stroke-linecap="round" stroke-linejoin="round" stroke-width="3" d="M24.1934426,6.91967213 L23.8065574,7.08032787"/><polyline id="路径" stroke="#333" stroke-linecap="round" stroke-linejoin="round" stroke-width="3" points="27.444 5.257 40 0 23.195 40 19.721 20.209 17.181 19.762 12.932 19.015 0 16.747 19.721 8.489"/><path id="路径" stroke="#333" stroke-linecap="round" stroke-linejoin="round" stroke-width="3" d="M28,12 L20,19"/></g><circle id="椭圆形备份-2" cx="17.911" cy="49.575" r="1.5" fill="#32C5FF" transform="translate(17.910714, 49.574510) rotate(4.000000) translate(-17.910714, -49.574510)"/><circle id="椭圆形" cx="9.55" cy="39.601" r="1.5" fill="#32C5FF" transform="translate(9.549577, 39.600981) scale(-1, -1) rotate(4.000000) translate(-9.549577, -39.600981)"/><circle id="椭圆形备份-3" cx="12.449" cy="45.5" r="1.5" fill="#542DE0" transform="translate(12.448596, 45.500000) scale(-1, -1) rotate(4.000000) translate(-12.448596, -45.500000)"/><g id="编组" fill="#32C5FF" transform="translate(12.448596, 12.000000) rotate(35.000000) translate(-12.448596, -12.000000) translate(3.948596, 4.000000)"><rect id="矩形备份-2" width="5" height="3" x="6.231" y="11.95" rx="1.5" transform="translate(8.730811, 13.449593) scale(-1, -1) rotate(-270.000000) translate(-8.730811, -13.449593)"/><rect id="矩形备份-2" width="5" height="3" x="1" y="8.149" rx="1.5" transform="translate(3.500000, 9.649187) scale(-1, -1) rotate(-198.000000) translate(-3.500000, -9.649187)"/><rect id="矩形备份-2" width="5" height="3" x="2.998" y="2" rx="1.5" transform="translate(5.497992, 3.500000) scale(-1, -1) rotate(-126.000000) translate(-5.497992, -3.500000)"/><rect id="矩形备份-2" width="5" height="3" x="9.464" y="2" rx="1.5" transform="translate(11.963630, 3.500000) scale(-1, -1) rotate(-54.000000) translate(-11.963630, -3.500000)"/><rect id="矩形备份-2" width="5" height="3" x="11.462" y="8.149" rx="1.5" transform="translate(13.961622, 9.649187) scale(-1, -1) rotate(18.000000) translate(-13.961622, -9.649187)"/></g><rect id="矩形备份-2" width="10" height="3" x="14.168" y="38.302" fill="#32C5FF" rx="1.5" transform="translate(19.167671, 39.801900) rotate(-221.000000) translate(-19.167671, -39.801900)"/><rect id="矩形备份-3" width="5" height="3" x="11.319" y="34.272" fill="#32C5FF" rx="1.5" transform="translate(13.819459, 35.772212) rotate(-221.000000) translate(-13.819459, -35.772212)"/><rect id="矩形备份-4" width="5" height="3" x="19.68" y="44.363" fill="#32C5FF" rx="1.5" transform="translate(22.179996, 45.863280) rotate(-221.000000) translate(-22.179996, -45.863280)"/></g></g></g></g></svg>