<svg xmlns="http://www.w3.org/2000/svg" xmlns:xlink="http://www.w3.org/1999/xlink" width="98" height="98" version="1.1" viewBox="0 0 98 98"><title>widget</title><desc>Created with Sketch.</desc><g id="Page-1" fill="none" fill-rule="evenodd" stroke="none" stroke-width="1"><g id="分享弹窗" transform="translate(-70.000000, -346.000000)"><g id="widget" transform="translate(70.000000, 346.000000)"><circle id="椭圆形" cx="48.75" cy="48.75" r="48.75" fill="#FFF"/><g id="icon_widget" transform="translate(24.000000, 20.000000)"><circle id="椭圆形" cx="1.5" cy="12.515" r="1.5" fill="#542DE0"/><circle id="椭圆形备份-2" cx="48.5" cy="49" r="1.5" fill="#32C5FF"/><circle id="椭圆形备份-3" cx="4.5" cy="17" r="1.5" fill="#32C5FF"/><g id="资源-1" transform="translate(1.000000, 9.500000)"><path id="路径" fill="#542DE0" fill-rule="nonzero" d="M8.62206148,32 L8.62206148,33.7905263 L2.95479204,33.7905263 C2.54138044,33.7905263 2.14490111,33.6471301 1.85257496,33.3918832 C1.56024882,33.1366363 1.3960217,32.7904473 1.3960217,32.4294737 L1.3960217,32 L0,32 L0,33.5789474 C0,36.0206273 2.26691266,38 5.06329114,38 L10,38 L10,32 L8.62206148,32 Z"/><path id="路径" fill="#32C5FF" fill-rule="nonzero" d="M39.4190384,32.6351551 L14.5848371,32.6351551 C12.9879054,32.6349504 11.5841051,31.5600435 11.1433935,30 L11,30 L11,38 L43,38 L43,30.0039389 L42.8566065,30.0039389 C42.4148645,31.5610193 41.0134526,32.6337013 39.4190384,32.6351551 L39.4190384,32.6351551 Z"/><path id="路径" stroke="#333" stroke-linecap="round" stroke-linejoin="round" stroke-width="3" d="M21,0.5 L22,0.5"/><path id="路径" stroke="#333" stroke-linecap="round" stroke-linejoin="round" stroke-width="3" d="M26.1750169,1 L40.7535385,1 C42.5465097,1 44,2.42713931 44,4.18760486 L44,35.8123951 C44,37.5728607 42.5465097,39 40.7535385,39 L10,39 L10,4.18760486 C10,2.42713931 11.4534903,1 13.2464615,1 L17.1613121,1"/><path id="路径" stroke="#333" stroke-linecap="round" stroke-linejoin="round" stroke-width="3" d="M10,39 L5.06329114,39 C2.26691266,39 0,36.6036518 0,33.6476064 L0,21.3523936 C0,18.3963482 2.26691266,16 5.06329114,16 L5.65280289,16"/><path id="路径" stroke="#333" stroke-linecap="round" stroke-linejoin="round" stroke-width="3" d="M32,11.5 L38,11.5"/><path id="路径" stroke="#333" stroke-linecap="round" stroke-linejoin="round" stroke-width="3" d="M38,19.5 L32,19.5"/><path id="路径" stroke="#333" stroke-linecap="round" stroke-linejoin="round" stroke-width="3" d="M24,27.5 L37,27.5"/><rect id="矩形" width="9" height="9" x="16.5" y="10.5" stroke="#333" stroke-linejoin="round" stroke-width="3" rx="1"/></g><rect id="矩形" width="10" height="3" x="1" y="4.015" fill="#32C5FF" rx="1.5"/><rect id="矩形备份-2" width="10" height="3" x="1.097" y="4" fill="#32C5FF" rx="1.5" transform="translate(6.097168, 5.500000) rotate(-270.000000) translate(-6.097168, -5.500000)"/></g></g></g></g></svg>