<svg xmlns="http://www.w3.org/2000/svg" xmlns:xlink="http://www.w3.org/1999/xlink" width="200" height="200" class="icon" p-id="856" t="1573457875673" version="1.1" viewBox="0 0 1024 1024"><defs><style type="text/css"/></defs><path fill="#F6851B" d="M568.46 370.62l-113.28 0.176-44.2-106.752z" p-id="857"/><path fill="#F6851B" d="M410.98 264.044l203.202-0.424-45.722 107z" p-id="858"/><path fill="#E4761B" d="M455.18 370.796L170.064 156.352l240.916 107.692z" p-id="859"/><path fill="#E2761B" d="M853.998 154.54l-285.54 216.08 45.724-107z" p-id="860"/><path fill="#763D16" d="M285.726 462.106l-129.192-33.656L149.6 398.32zM160.952 464.646l-4.42-36.196 129.194 33.656zM179.026 516.926l106.7-54.82 55.48 9.854z" p-id="861"/><path fill="#763D16" d="M160.952 464.646l124.774-2.54-106.7 54.82zM739.626 461.628l136.3-64.316-6.992 30.26zM864.452 463.912l-124.826-2.284 129.308-34.054zM846.27 516.412l-162.86-44.794 56.216-9.99z" p-id="862"/><path fill="#763D16" d="M864.452 463.912l-18.182 52.5-106.644-54.784zM291.226 298.26l-5.5 163.846L149.6 398.32zM341.208 471.96l-55.482-9.854 5.5-163.846z" p-id="863"/><path fill="#E2761B" d="M344.44 804.94l42.34-22.406 7.406-1.744zM631.288 780.932l6.538 1.754 41.3 22.496z" p-id="864"/><path fill="#763D16" d="M875.926 397.312l-136.3 64.316-6.6-164.212z" p-id="865"/><path fill="#763D16" d="M733.026 297.416l6.6 164.212-56.218 9.99z" p-id="866"/><path fill="#E4761B" d="M344.44 804.94l-181.186 66.93L118.86 690.62z" p-id="867"/><path fill="#763D16" d="M132.772 409.216l16.83-10.896 6.932 30.13z" p-id="868"/><path fill="#E4761B" d="M907.374 690.724l-44.44 181.9-183.808-67.44z" p-id="869"/><path fill="#763D16" d="M291.226 298.26l163.954 72.536-113.972 101.164zM160.952 464.646L137.44 441.68l19.092-13.232zM683.408 471.618L568.46 370.62l164.566-73.206zM892.772 408.206l-23.838 19.368 6.992-30.26zM149.6 398.32l-20.96-125.808 162.586 25.748zM179.026 516.926l-33.696-42.21 15.62-10.07z" p-id="870"/><path fill="#763D16" d="M864.452 463.912l4.482-36.34 19.106 13.238zM733.026 297.416l163.442-26.472-20.542 126.368z" p-id="871"/><path fill="#F6851B" d="M290.518 528.532L118.86 690.618l60.164-173.692z" p-id="872"/><path fill="#763D16" d="M846.27 516.412l18.18-52.5 15.636 10.076z" p-id="873"/><path fill="#F6851B" d="M263.492 669.598l-144.63 21.02 171.656-162.086z" p-id="874"/><path fill="#E4761B" d="M118.862 690.62l144.63-21.022 80.95 135.34z" p-id="875"/><path fill="#F6851B" d="M732.598 528.218l113.672-11.806 61.104 174.312zM732.598 528.218l174.776 162.506-147.728-21.114z" p-id="876"/><path fill="#E4761B" d="M679.126 805.182l80.52-135.572 147.728 21.114z" p-id="877"/><path fill="#F6851B" d="M179.026 516.926l162.18-44.966-50.688 56.572zM846.27 516.412l-113.672 11.806-49.19-56.6z" p-id="878"/><path fill="#E4761B" d="M341.208 471.96l113.972-101.164 8.568 158.632zM463.748 529.428l-173.23-0.896 50.69-56.572zM683.408 471.618l49.19 56.6-174.382 1.144zM558.216 529.36l10.244-158.74 114.948 100.998z" p-id="879"/><path fill="#763D16" d="M170.064 156.352L455.18 370.796l-163.954-72.536zM291.226 298.26l-162.584-25.748 41.42-116.16zM853.998 154.54l42.47 116.404-163.442 26.472zM733.026 297.416l-164.566 73.206L853.998 154.54z" p-id="880"/><path fill="#F6851B" d="M455.18 370.796l113.28-0.174-10.244 158.74z" p-id="881"/><path fill="#F6851B" d="M558.216 529.36l-94.468 0.068-8.568-158.632z" p-id="882"/><path fill="#CD6116" d="M344.44 804.94l-80.948-135.342 97.266-4.644zM679.126 805.182l-17.756-140.228 98.276 4.656zM359.352 595.27l-68.834-66.74 173.23 0.9z" p-id="883"/><path fill="#F6851B" d="M290.518 528.532l70.24 136.422-97.266 4.644z" p-id="884"/><path fill="#E4751F" d="M290.518 528.532l68.834 66.74 1.406 69.682z" p-id="885"/><path fill="#CD6116" d="M558.216 529.36l174.38-1.142-69.58 66.942z" p-id="886"/><path fill="#F6851B" d="M759.646 669.61l-98.276-4.656L732.6 528.22z" p-id="887"/><path fill="#E4751F" d="M732.598 528.218l-71.228 136.736 1.646-69.794z" p-id="888"/><path fill="#C0AD9E" d="M378.57 824.702l-34.128-19.764 97.99 7.024zM576.66 812.064l102.466-6.88-35.198 19.74z" p-id="889"/><path fill="#CD6116" d="M463.748 529.428l-42.032 36.764-62.364 29.08z" p-id="890"/><path fill="#D7C1B3" d="M441.402 773.172l1.03 38.79-97.99-7.024z" p-id="891"/><path fill="#CD6116" d="M663.016 595.16l-62.6-29.06-42.2-36.74z" p-id="892"/><path fill="#E4761B" d="M450.16 700.576l-105.72 104.362 16.32-139.984z" p-id="893"/><path fill="#D7C1B3" d="M344.44 804.94l105.72-104.364-8.758 72.596zM576.848 773.248l102.278 31.934-102.464 6.882z" p-id="894"/><path fill="#E4761B" d="M567.982 700.598l93.388-35.644 17.756 140.228z" p-id="895"/><path fill="#D7C1B3" d="M679.126 805.182l-102.278-31.934-8.866-72.65z" p-id="896"/><path fill="#F6851B" d="M360.76 664.954l-1.408-69.684 87.666 21.214z" p-id="897"/><path fill="#233447" d="M447.018 616.484l-87.666-21.214 62.364-29.078z" p-id="898"/><path fill="#F6851B" d="M661.37 664.954l-86.72-48.5 88.366-21.294z" p-id="899"/><path fill="#233447" d="M574.65 616.452l25.768-50.352 62.598 29.06z" p-id="900"/><path fill="#CD6116" d="M421.716 566.192l42.032-36.764-16.73 87.056zM600.418 566.1l-25.768 50.352-16.434-87.09z" p-id="901"/><path fill="#F6851B" d="M467.144 579.45l-3.396-50.02 94.468-0.068z" p-id="902"/><path fill="#E4751F" d="M447.018 616.484l16.73-87.056 3.396 50.022z" p-id="903"/><path fill="#F6851B" d="M558.216 529.36l-4.062 50.052-87.01 0.04z" p-id="904"/><path fill="#E2761B" d="M574.65 616.452l-20.496-37.04 4.062-50.05z" p-id="905"/><path fill="#C0AD9E" d="M442.432 811.96l5.714 29.408-69.576-16.666zM643.928 824.924l-73.192 16.558 5.926-29.418z" p-id="906"/><path fill="#F6851B" d="M450.16 700.576l-89.4-35.62 86.258-48.472zM574.65 616.452l86.72 48.502-93.388 35.644z" p-id="907"/><path fill="#E4751F" d="M467.144 579.45l-1.776 110.544-18.35-73.51z" p-id="908"/><path fill="#F6851B" d="M447.018 616.484l18.35 73.51-15.21 10.58z" p-id="909"/><path fill="#E4751F" d="M554.154 579.412l20.496 37.04-21.888 73.554z" p-id="910"/><path fill="#F6851B" d="M567.982 700.598l-15.22-10.592 21.888-73.554z" p-id="911"/><path fill="#F6851B" d="M467.144 579.45l87.01-0.038-1.392 110.594zM552.76 690.006l-87.392-0.012 1.776-110.544z" p-id="912"/><path fill="#C0AD9E" d="M448.146 841.368l-5.714-29.406-1.03-38.79zM576.848 773.248l-0.186 38.816-5.926 29.418z" p-id="913"/><path fill="#C0AD9E" d="M441.402 773.172l7.676-11.288-0.932 79.484zM448.146 841.368l0.932-79.484 119.686 0.06z" p-id="914"/><path fill="#C0AD9E" d="M568.764 761.944l1.972 79.538-122.59-0.114zM570.736 841.48l-1.972-79.536 8.084 11.304z" p-id="915"/><path fill="#161616" d="M449.08 761.884l-7.678 11.288 8.756-72.596zM567.982 700.598l8.866 72.65-8.084-11.304zM464.12 696.594l1.248-6.6 87.394 0.012z" p-id="916"/><path fill="#161616" d="M450.16 700.576l15.208-10.582-1.246 6.6z" p-id="917"/><path fill="#161616" d="M552.76 690.006l0.436 6.604-89.074-0.016zM553.196 696.61l-0.434-6.604 15.22 10.592zM450.16 700.576l4.22 6.996-5.3 54.312z" p-id="918"/><path fill="#161616" d="M464.12 696.594l-9.74 10.978-4.22-6.996zM568.764 761.944l-5.822-54.348 5.04-7z" p-id="919"/><path fill="#161616" d="M567.982 700.598l-5.04 6.998-9.746-10.986zM568.764 761.944l-119.686-0.06 5.3-54.312zM454.38 707.572l108.56 0.024 5.824 54.348zM454.38 707.572l9.74-10.978 89.076 0.016z" p-id="920"/><path fill="#161616" d="M553.196 696.61l9.746 10.986-108.562-0.024z" p-id="921"/></svg>