<svg xmlns="http://www.w3.org/2000/svg" xmlns:xlink="http://www.w3.org/1999/xlink" width="40" height="35" version="1.1" viewBox="0 0 40 35"><title>dianzidangan</title><desc>Created with Sketch.</desc><g id="页面1" fill="none" fill-rule="evenodd" stroke="none" stroke-width="1"><g id="商品页" fill-rule="nonzero" transform="translate(-1321.000000, -1352.000000)"><g id="dianzidangan" transform="translate(1321.000000, 1352.000000)"><polygon id="路径-4" fill="#FFF" points="1.619 4 3.195 1.482 35.805 1.482 38.078 4 38.078 26.196 35.805 28.521 3.195 28.521 1.619 26.196"/><path id="形状" fill="#333" d="M34.9953436,29.8295885 L4.17330414,29.8295885 C1.87405278,29.8161038 0.0134659433,27.955517 1.42108547e-14,25.6562656 L1.42108547e-14,4.19179736 C0.0033949541,1.8781393 1.8781393,0.0033949541 4.19179736,0 L35.0138368,0 C37.3274949,0.0033949541 39.2022392,1.8781393 39.2056342,4.19179736 L39.2056342,25.6562656 C39.1920543,27.9699181 37.3090258,29.8364046 34.9953436,29.8295885 Z M4.18563295,2.46576314 C3.23237058,2.46576314 2.45959874,3.23853498 2.45959874,4.19179736 L2.45959874,25.6562656 C2.45959874,26.609528 3.23237058,27.3822998 4.18563295,27.3822998 L35.0076724,27.3822998 C35.9609348,27.3822998 36.7337066,26.609528 36.7337066,25.6562656 L36.7337066,4.19179736 C36.7337066,3.23853498 35.9609348,2.46576314 35.0076724,2.46576314 L4.18563295,2.46576314 Z M37.9542594,31.3645073 C37.9508684,32.9972647 36.628101,34.3200321 34.9953436,34.3234231 L4.17330414,34.3234231 C2.54054673,34.3200321 1.21777934,32.9972647 1.21438835,31.3645073 L37.9542594,31.3645073 Z"/><path id="路径" fill="#FDD65D" d="M8.36510149,7.15071314 L21.7973463,7.15071314 C22.7836516,7.15071314 23.2768042,7.64386577 23.2768042,8.63017103 L23.2768042,8.63017103 C23.2768042,9.61647629 22.7836516,10.1096289 21.7973463,10.1096289 L8.36510149,10.1096289 C7.37879623,10.1096289 6.8856436,9.61647629 6.8856436,8.63017103 L6.8856436,8.63017103 C6.8856436,7.64386577 7.37879623,7.15071314 8.36510149,7.15071314 Z"/><path id="路径" fill="#FDD65D" d="M8.36510149,13.4322448 L25.5637995,13.4322448 C26.5501048,13.4322448 27.0432574,13.9253974 27.0432574,14.9117027 L27.0432574,14.9117027 C27.0432574,15.8980079 26.5501048,16.3911606 25.5637995,16.3911606 L8.36510149,16.3911606 C7.37879623,16.3911606 6.8856436,15.8980079 6.8856436,14.9117027 L6.8856436,14.9117027 C6.8856436,13.9253974 7.37879623,13.4322448 8.36510149,13.4322448 Z"/><path id="路径" fill="#333" d="M8.36510149,19.7199408 L30.8220394,19.7199408 C31.8083447,19.7199408 32.3014973,20.2130935 32.3014973,21.1993987 L32.3014973,21.1993987 C32.3014973,22.185704 31.8083447,22.6788566 30.8220394,22.6788566 L8.36510149,22.6788566 C7.37879623,22.6788566 6.8856436,22.185704 6.8856436,21.1993987 L6.8856436,21.1993987 C6.8856436,20.2130935 7.37879623,19.7199408 8.36510149,19.7199408 Z"/></g></g></g></svg>